<?xml version="1.0" encoding="iso-8859-1"?>
<!-- Generator: Adobe Illustrator 19.0.0, SVG Export Plug-In . SVG Version: 6.00 Build 0)  -->
<svg version="1.1" id="Capa_1" xmlns="http://www.w3.org/2000/svg" xmlns:xlink="http://www.w3.org/1999/xlink" x="0px" y="0px"
	 viewBox="0 0 480 480" style="enable-background:new 0 0 480 480;" xml:space="preserve">
<path style="fill:#E6E6E6;" d="M140,456h-24c-13.255,0-24-10.745-24-24V32c0-13.255,10.745-24,24-24h304c13.255,0,24,10.745,24,24
	v400c0,13.255-10.745,24-24,24H140z"/>
<path style="fill:#0071BC;" d="M116,8h304c13.255,0,24,10.745,24,24v40l0,0H92l0,0V32C92,18.745,102.745,8,116,8z"/>
<g>
	<path style="fill:#FBB03B;" d="M324,208h80v64h-80V208z"/>
	<path style="fill:#FBB03B;" d="M324,112h80v64h-80V112z"/>
	<path style="fill:#FBB03B;" d="M132,208h56v64h-56V208z"/>
</g>
<path style="fill:#F2C09A;" d="M364,372c0-11.046-8.954-20-20-20c11.046,0,20-8.954,20-20s-8.954-20-20-20h-68l2.112-5.28
	c9.024-22.574,10.704-47.417,4.8-71c-4.073-16.285-18.702-27.712-35.488-27.72H236c9.814,39.289-3.176,80.768-33.648,107.44L188,328
	h-32v128h32c21.044,10.521,44.248,15.999,67.776,16H344c11.046,0,20-8.954,20-20s-8.954-20-20-20c11.046,0,20-8.954,20-20
	s-8.954-20-20-20C355.046,392,364,383.046,364,372z"/>
<path style="fill:#29ABE2;" d="M76,312h80v160H76V312z"/>
<path style="fill:#DEDAD8;" d="M28,328h48v128H28V328z"/>
<path d="M68,472c0,4.418,3.582,8,8,8h80c4.418,0,8-3.582,8-8v-8h22.136c21.715,10.502,45.519,15.971,69.64,16H344
	c10.777-0.041,20.573-6.263,25.192-16H420c17.673,0,32-14.327,32-32V32c0-17.673-14.327-32-32-32H116C98.327,0,84,14.327,84,32v272
	h-8c-4.418,0-8,3.582-8,8v8H28v16h40v112H28v16h40V472z M344,464h-88.224c-22.287-0.037-44.262-5.24-64.2-15.2
	c-1.114-0.54-2.338-0.814-3.576-0.8h-24V336h24c1.94,0,3.813-0.705,5.272-1.984l14.352-12.552
	C237.719,295.268,252.154,255.39,245.8,216h1.6c13.149-0.039,24.625,8.904,27.8,21.664c5.532,21.946,3.964,45.081-4.48,66.08
	L270.584,304H252v16h92c6.627,0,12,5.373,12,12s-5.373,12-12,12h-20v16h20c6.627,0,12,5.373,12,12s-5.373,12-12,12h-20v16h20
	c6.627,0,12,5.373,12,12s-5.373,12-12,12h-20v16h20c6.627,0,12,5.373,12,12S350.627,464,344,464L344,464z M116,16h304
	c8.837,0,16,7.163,16,16v32H100V32C100,23.163,107.163,16,116,16z M100,80h336v352c0,8.837-7.163,16-16,16h-48.408
	c-0.849-6.075-3.681-11.7-8.056-16c11.046-10.715,11.314-28.355,0.599-39.401c-0.197-0.203-0.396-0.402-0.599-0.599
	c11.046-10.715,11.314-28.355,0.599-39.401c-0.197-0.203-0.396-0.402-0.599-0.599c11.068-10.768,11.311-28.47,0.542-39.538
	c-5.273-5.42-12.517-8.473-20.078-8.462h-56.432c7.861-22.601,8.945-47.007,3.12-70.216c-4.937-19.87-22.79-33.811-43.264-33.784
	H236c-4.418,0-8,3.582-8,8c0,0.655,0.081,1.308,0.24,1.944c9.189,36.382-2.857,74.841-31.16,99.48L184.992,320H164v-8
	c0-4.418-3.582-8-8-8h-56L100,80z M84,320h64v144H84V320z"/>
<path d="M108,432h16v16h-16V432z"/>
<path d="M116,32h16v16h-16V32z"/>
<path d="M148,32h16v16h-16V32z"/>
<path d="M180,32h16v16h-16V32z"/>
<path d="M124,136h168v16H124V136z"/>
<path d="M124,168h168v16H124V168z"/>
<path d="M188,104h104v16H188V104z"/>
<path d="M156,104h16v16h-16V104z"/>
<path d="M324,280h80c4.418,0,8-3.582,8-8v-64c0-4.418-3.582-8-8-8h-80c-4.418,0-8,3.582-8,8v64C316,276.418,319.582,280,324,280z
	 M332,216h64v48h-64V216z"/>
<path d="M324,184h80c4.418,0,8-3.582,8-8v-64c0-4.418-3.582-8-8-8h-80c-4.418,0-8,3.582-8,8v64C316,180.418,319.582,184,324,184z
	 M332,120h64v48h-64V120z"/>
<path d="M196,272v-64c0-4.418-3.582-8-8-8h-56c-4.418,0-8,3.582-8,8v64c0,4.418,3.582,8,8,8h56C192.418,280,196,276.418,196,272z
	 M180,264h-40v-48h40V264z"/>
<g>
</g>
<g>
</g>
<g>
</g>
<g>
</g>
<g>
</g>
<g>
</g>
<g>
</g>
<g>
</g>
<g>
</g>
<g>
</g>
<g>
</g>
<g>
</g>
<g>
</g>
<g>
</g>
<g>
</g>
</svg>
